<?xml version="1.0" encoding="UTF-8"?>
<svg width="40px" height="40px" viewBox="0 0 40 40" version="1.1" xmlns="http://www.w3.org/2000/svg" xmlns:xlink="http://www.w3.org/1999/xlink">
    <title>logo</title>
    <g id="Page-1" stroke="none" stroke-width="1" fill="none" fill-rule="evenodd">
        <g id="Logo-Work" transform="translate(-1137.000000, -960.000000)" fill-rule="nonzero">
            <g id="logo-seo-site-checkup" transform="translate(1137.000000, 960.000000)">
                <path d="M10.2284389,25.0780887 L12.6996676,25.0780887 C13.1161513,25.0780887 13.5015024,24.8742144 13.7242728,24.5284546 L14.7184373,23.0489884 L16.4577063,29.1066724 C16.6016076,29.6156694 17.0547585,30 17.683635,30 C18.24402,29.9800258 18.725536,29.58743 18.8521415,29.0384847 L20.7166323,20.8463194 L22.000675,26.5754628 C22.2033822,27.4701679 23.2653464,27.8372794 23.980702,27.2690486 L26.7335069,25.0773999 L28.7723398,25.0773999 C30.4133684,25.0773999 30.4050664,22.614378 28.7723398,22.614378 L26.3004192,22.614378 C26.0188431,22.614378 25.7490281,22.710805 25.5276414,22.8843737 L23.9820857,24.1145071 L21.9453284,14.9615153 C21.818031,14.4029272 21.3171437,14 20.7366955,14 C20.1569392,14 19.6546682,14.3946621 19.5294463,14.9615153 L17.5106766,23.8080069 L16.3629251,19.817994 C16.0723551,18.8185966 14.7288148,18.5968145 14.1504421,19.4708567 L12.0445014,22.6150667 L10.2284389,22.6150667 C8.58602654,22.6150667 8.59502037,25.0780887 10.2284389,25.0780887 Z M37.9224481,0 L2.07655212,0 C0.931799024,0 0,0.968 0,2.164 L0,35.841 C0,37.034 0.932798808,38 2.07655212,38 L37.9224481,38 C39.0692008,38 40,37.034 40,35.841 L40,2.164 C40,0.968 39.0702005,0 37.9224481,0 Z M15.0005183,3 C16.1054677,3 17,3.89533679 17,5.00103627 C17,6.10466321 16.1054677,7 15.0005183,7 C13.8955688,7 13,6.10569948 13,5.00103627 C13.0010365,3.89533679 13.8955688,3 15.0005183,3 Z M10.0010363,3 C11.1046632,3 12,3.89533679 12,5.00103627 C12,6.10466321 11.1046632,7 10.0010363,7 C8.89533679,7 8,6.10569948 8,5.00103627 C8,3.89533679 8.89637306,3 10.0010363,3 Z M5.00051827,3 C6.10650428,3 7,3.89533679 7,5.00103627 C7,6.10466321 6.10650428,7 5.00051827,7 C3.8955688,7 3,6.10569948 3,5.00103627 C3,3.89533679 3.8955688,3 5.00051827,3 Z M37,33.093631 C37,34.1458347 36.1526234,35 35.1071587,35 L4.89484215,35 C3.84837706,35 3,34.1458347 3,33.093631 L3,12 C3,10.8954305 3.8954305,10 5,10 L35,10 C36.1045695,10 37,10.8954305 37,12 L37,33.093631 L37,33.093631 Z" id="Shape-Copy-9" fill="#FE6100"></path>
            </g>
        </g>
    </g>
</svg>